<mxfile host="app.diagrams.net" modified="2022-05-18T11:18:42.294Z" agent="5.0 (Windows)" etag="uwPPVibXtETypChQIEei" version="18.0.7" type="github">
  <diagram id="3Yx4DT_KVEAPs4B64FAH" name="Page-1">
    <mxGraphModel dx="716" dy="364" grid="1" gridSize="10" guides="1" tooltips="1" connect="1" arrows="1" fold="1" page="1" pageScale="1" pageWidth="827" pageHeight="1169" math="0" shadow="0">
      <root>
        <mxCell id="0" />
        <mxCell id="1" parent="0" />
        <mxCell id="0Dci-KlXa0b1RGX8swSG-21" value="" style="group" parent="1" vertex="1" connectable="0">
          <mxGeometry x="260" y="320" width="80" height="96.5" as="geometry" />
        </mxCell>
        <mxCell id="0Dci-KlXa0b1RGX8swSG-20" value="" style="image;html=1;image=img/lib/clip_art/computers/Server_Rack_128x128.png" parent="0Dci-KlXa0b1RGX8swSG-21" vertex="1">
          <mxGeometry width="80" height="80" as="geometry" />
        </mxCell>
        <mxCell id="0Dci-KlXa0b1RGX8swSG-19" value="" style="shape=image;html=1;verticalAlign=top;verticalLabelPosition=bottom;labelBackgroundColor=#ffffff;imageAspect=0;aspect=fixed;image=https://cdn1.iconfinder.com/data/icons/unicons-line-vol-5/24/react-128.png" parent="0Dci-KlXa0b1RGX8swSG-21" vertex="1">
          <mxGeometry x="40" y="42" width="38" height="38" as="geometry" />
        </mxCell>
        <mxCell id="k35hs6R8eBNfvN6zboLI-1" value="" style="group" vertex="1" connectable="0" parent="0Dci-KlXa0b1RGX8swSG-21">
          <mxGeometry x="-80" width="88.42000000000002" height="96.5" as="geometry" />
        </mxCell>
        <mxCell id="0Dci-KlXa0b1RGX8swSG-56" value="" style="shape=image;html=1;verticalAlign=top;verticalLabelPosition=bottom;labelBackgroundColor=#ffffff;imageAspect=0;aspect=fixed;image=https://devexp.io/wp-content/uploads/2019/05/ts.png;fillColor=#FFFF00;" parent="k35hs6R8eBNfvN6zboLI-1" vertex="1">
          <mxGeometry width="43" height="43" as="geometry" />
        </mxCell>
        <mxCell id="0Dci-KlXa0b1RGX8swSG-58" value="" style="shape=image;html=1;verticalAlign=top;verticalLabelPosition=bottom;labelBackgroundColor=#ffffff;imageAspect=0;aspect=fixed;image=https://upload.wikimedia.org/wikipedia/commons/thumb/9/96/Sass_Logo_Color.svg/1200px-Sass_Logo_Color.svg.png;fillColor=#FFFF00;" parent="k35hs6R8eBNfvN6zboLI-1" vertex="1">
          <mxGeometry x="43" y="4.5" width="45.42" height="34" as="geometry" />
        </mxCell>
        <mxCell id="0Dci-KlXa0b1RGX8swSG-62" value="" style="shape=image;html=1;verticalAlign=top;verticalLabelPosition=bottom;labelBackgroundColor=#ffffff;imageAspect=0;aspect=fixed;image=https://cdn1.iconfinder.com/data/icons/unicons-line-vol-5/24/react-128.png;fillColor=#FFFF00;" parent="k35hs6R8eBNfvN6zboLI-1" vertex="1">
          <mxGeometry x="10" y="38.5" width="58" height="58" as="geometry" />
        </mxCell>
        <mxCell id="0Dci-KlXa0b1RGX8swSG-38" value="" style="group" parent="1" vertex="1" connectable="0">
          <mxGeometry x="271" y="400" width="58" height="80" as="geometry" />
        </mxCell>
        <mxCell id="0Dci-KlXa0b1RGX8swSG-39" value="" style="shape=flexArrow;endArrow=classic;html=1;rounded=0;" parent="0Dci-KlXa0b1RGX8swSG-38" edge="1">
          <mxGeometry width="50" height="50" relative="1" as="geometry">
            <mxPoint x="20" y="80" as="sourcePoint" />
            <mxPoint x="20" as="targetPoint" />
            <Array as="points">
              <mxPoint x="20" y="50" />
            </Array>
          </mxGeometry>
        </mxCell>
        <mxCell id="0Dci-KlXa0b1RGX8swSG-40" value="" style="shape=flexArrow;endArrow=classic;html=1;rounded=0;" parent="0Dci-KlXa0b1RGX8swSG-38" edge="1">
          <mxGeometry width="50" height="50" relative="1" as="geometry">
            <mxPoint x="40" as="sourcePoint" />
            <mxPoint x="40" y="80" as="targetPoint" />
          </mxGeometry>
        </mxCell>
        <mxCell id="0Dci-KlXa0b1RGX8swSG-41" value="" style="shape=image;html=1;verticalAlign=top;verticalLabelPosition=bottom;labelBackgroundColor=#ffffff;imageAspect=0;aspect=fixed;image=https://cdn0.iconfinder.com/data/icons/google-material-design-3-0/48/ic_http_48px-128.png" parent="0Dci-KlXa0b1RGX8swSG-38" vertex="1">
          <mxGeometry y="10" width="58" height="58" as="geometry" />
        </mxCell>
        <mxCell id="0Dci-KlXa0b1RGX8swSG-42" value="" style="points=[];aspect=fixed;html=1;align=center;shadow=0;dashed=0;image;image=img/lib/allied_telesis/computer_and_terminals/Personal_Computer.svg;" parent="1" vertex="1">
          <mxGeometry x="260" y="490" width="85.6" height="116.01" as="geometry" />
        </mxCell>
        <mxCell id="0Dci-KlXa0b1RGX8swSG-53" value="" style="group" parent="1" vertex="1" connectable="0">
          <mxGeometry x="170" y="40" width="260" height="270" as="geometry" />
        </mxCell>
        <mxCell id="0Dci-KlXa0b1RGX8swSG-8" value="" style="ellipse;shape=cloud;whiteSpace=wrap;html=1;" parent="0Dci-KlXa0b1RGX8swSG-53" vertex="1">
          <mxGeometry width="260" height="190" as="geometry" />
        </mxCell>
        <mxCell id="0Dci-KlXa0b1RGX8swSG-1" value="" style="shape=image;html=1;verticalAlign=top;verticalLabelPosition=bottom;labelBackgroundColor=#ffffff;imageAspect=0;aspect=fixed;image=https://cdn1.iconfinder.com/data/icons/fruit-136/64/Fruit_iconfree_Filled_Outline_raspberry-healthy-organic-food-fruit_icon-128.png" parent="0Dci-KlXa0b1RGX8swSG-53" vertex="1">
          <mxGeometry x="70" y="40" width="40" height="40" as="geometry" />
        </mxCell>
        <mxCell id="0Dci-KlXa0b1RGX8swSG-3" value="" style="shape=image;html=1;verticalAlign=top;verticalLabelPosition=bottom;labelBackgroundColor=#ffffff;imageAspect=0;aspect=fixed;image=https://cdn1.iconfinder.com/data/icons/fruit-136/64/Fruit_iconfree_Filled_Outline_raspberry-healthy-organic-food-fruit_icon-128.png" parent="0Dci-KlXa0b1RGX8swSG-53" vertex="1">
          <mxGeometry x="110" y="80" width="40" height="40" as="geometry" />
        </mxCell>
        <mxCell id="0Dci-KlXa0b1RGX8swSG-4" value="" style="shape=image;html=1;verticalAlign=top;verticalLabelPosition=bottom;labelBackgroundColor=#ffffff;imageAspect=0;aspect=fixed;image=https://cdn1.iconfinder.com/data/icons/fruit-136/64/Fruit_iconfree_Filled_Outline_raspberry-healthy-organic-food-fruit_icon-128.png" parent="0Dci-KlXa0b1RGX8swSG-53" vertex="1">
          <mxGeometry x="150" y="40" width="40" height="40" as="geometry" />
        </mxCell>
        <mxCell id="0Dci-KlXa0b1RGX8swSG-5" value="" style="shape=image;html=1;verticalAlign=top;verticalLabelPosition=bottom;labelBackgroundColor=#ffffff;imageAspect=0;aspect=fixed;image=https://cdn1.iconfinder.com/data/icons/fruit-136/64/Fruit_iconfree_Filled_Outline_raspberry-healthy-organic-food-fruit_icon-128.png" parent="0Dci-KlXa0b1RGX8swSG-53" vertex="1">
          <mxGeometry x="70" y="120" width="40" height="40" as="geometry" />
        </mxCell>
        <mxCell id="0Dci-KlXa0b1RGX8swSG-7" value="" style="shape=image;html=1;verticalAlign=top;verticalLabelPosition=bottom;labelBackgroundColor=#ffffff;imageAspect=0;aspect=fixed;image=https://cdn1.iconfinder.com/data/icons/fruit-136/64/Fruit_iconfree_Filled_Outline_raspberry-healthy-organic-food-fruit_icon-128.png" parent="0Dci-KlXa0b1RGX8swSG-53" vertex="1">
          <mxGeometry x="150" y="120" width="40" height="40" as="geometry" />
        </mxCell>
        <mxCell id="0Dci-KlXa0b1RGX8swSG-11" value="" style="endArrow=none;html=1;rounded=0;exitX=0.5;exitY=0;exitDx=0;exitDy=0;entryX=0.5;entryY=1;entryDx=0;entryDy=0;" parent="0Dci-KlXa0b1RGX8swSG-53" source="0Dci-KlXa0b1RGX8swSG-7" target="0Dci-KlXa0b1RGX8swSG-4" edge="1">
          <mxGeometry width="50" height="50" relative="1" as="geometry">
            <mxPoint x="220" y="270" as="sourcePoint" />
            <mxPoint x="270" y="220" as="targetPoint" />
          </mxGeometry>
        </mxCell>
        <mxCell id="0Dci-KlXa0b1RGX8swSG-12" value="" style="endArrow=none;html=1;rounded=0;entryX=0.5;entryY=1;entryDx=0;entryDy=0;exitX=0.5;exitY=0;exitDx=0;exitDy=0;" parent="0Dci-KlXa0b1RGX8swSG-53" source="0Dci-KlXa0b1RGX8swSG-5" target="0Dci-KlXa0b1RGX8swSG-1" edge="1">
          <mxGeometry width="50" height="50" relative="1" as="geometry">
            <mxPoint x="220" y="270" as="sourcePoint" />
            <mxPoint x="270" y="220" as="targetPoint" />
          </mxGeometry>
        </mxCell>
        <mxCell id="0Dci-KlXa0b1RGX8swSG-14" value="" style="endArrow=none;html=1;rounded=0;entryX=1;entryY=0.5;entryDx=0;entryDy=0;exitX=0;exitY=0.5;exitDx=0;exitDy=0;" parent="0Dci-KlXa0b1RGX8swSG-53" source="0Dci-KlXa0b1RGX8swSG-4" target="0Dci-KlXa0b1RGX8swSG-1" edge="1">
          <mxGeometry width="50" height="50" relative="1" as="geometry">
            <mxPoint x="220" y="270" as="sourcePoint" />
            <mxPoint x="270" y="220" as="targetPoint" />
          </mxGeometry>
        </mxCell>
        <mxCell id="0Dci-KlXa0b1RGX8swSG-16" value="" style="endArrow=none;html=1;rounded=0;entryX=0;entryY=0.25;entryDx=0;entryDy=0;exitX=0.75;exitY=1;exitDx=0;exitDy=0;" parent="0Dci-KlXa0b1RGX8swSG-53" source="0Dci-KlXa0b1RGX8swSG-3" target="0Dci-KlXa0b1RGX8swSG-7" edge="1">
          <mxGeometry width="50" height="50" relative="1" as="geometry">
            <mxPoint x="220" y="270" as="sourcePoint" />
            <mxPoint x="270" y="220" as="targetPoint" />
          </mxGeometry>
        </mxCell>
        <mxCell id="0Dci-KlXa0b1RGX8swSG-17" value="" style="endArrow=none;html=1;rounded=0;entryX=0;entryY=0.75;entryDx=0;entryDy=0;exitX=0.75;exitY=0;exitDx=0;exitDy=0;" parent="0Dci-KlXa0b1RGX8swSG-53" source="0Dci-KlXa0b1RGX8swSG-3" target="0Dci-KlXa0b1RGX8swSG-4" edge="1">
          <mxGeometry width="50" height="50" relative="1" as="geometry">
            <mxPoint x="220" y="270" as="sourcePoint" />
            <mxPoint x="270" y="220" as="targetPoint" />
          </mxGeometry>
        </mxCell>
        <mxCell id="0Dci-KlXa0b1RGX8swSG-18" value="" style="endArrow=none;html=1;rounded=0;exitX=1;exitY=0.5;exitDx=0;exitDy=0;entryX=0.25;entryY=1;entryDx=0;entryDy=0;" parent="0Dci-KlXa0b1RGX8swSG-53" source="0Dci-KlXa0b1RGX8swSG-5" target="0Dci-KlXa0b1RGX8swSG-3" edge="1">
          <mxGeometry width="50" height="50" relative="1" as="geometry">
            <mxPoint x="220" y="270" as="sourcePoint" />
            <mxPoint x="270" y="220" as="targetPoint" />
          </mxGeometry>
        </mxCell>
        <mxCell id="0Dci-KlXa0b1RGX8swSG-48" value="" style="aspect=fixed;html=1;points=[];align=center;image;fontSize=12;image=img/lib/azure2/blockchain/Azure_Blockchain_Service.svg;" parent="0Dci-KlXa0b1RGX8swSG-53" vertex="1">
          <mxGeometry x="90" y="62" width="18" height="18" as="geometry" />
        </mxCell>
        <mxCell id="0Dci-KlXa0b1RGX8swSG-49" value="" style="aspect=fixed;html=1;points=[];align=center;image;fontSize=12;image=img/lib/azure2/blockchain/Azure_Blockchain_Service.svg;" parent="0Dci-KlXa0b1RGX8swSG-53" vertex="1">
          <mxGeometry x="170" y="62" width="18" height="18" as="geometry" />
        </mxCell>
        <mxCell id="0Dci-KlXa0b1RGX8swSG-50" value="" style="aspect=fixed;html=1;points=[];align=center;image;fontSize=12;image=img/lib/azure2/blockchain/Azure_Blockchain_Service.svg;" parent="0Dci-KlXa0b1RGX8swSG-53" vertex="1">
          <mxGeometry x="132" y="102" width="18" height="18" as="geometry" />
        </mxCell>
        <mxCell id="0Dci-KlXa0b1RGX8swSG-51" value="" style="aspect=fixed;html=1;points=[];align=center;image;fontSize=12;image=img/lib/azure2/blockchain/Azure_Blockchain_Service.svg;" parent="0Dci-KlXa0b1RGX8swSG-53" vertex="1">
          <mxGeometry x="168" y="142" width="18" height="18" as="geometry" />
        </mxCell>
        <mxCell id="0Dci-KlXa0b1RGX8swSG-52" value="" style="aspect=fixed;html=1;points=[];align=center;image;fontSize=12;image=img/lib/azure2/blockchain/Azure_Blockchain_Service.svg;" parent="0Dci-KlXa0b1RGX8swSG-53" vertex="1">
          <mxGeometry x="90" y="142" width="18" height="18" as="geometry" />
        </mxCell>
        <mxCell id="0Dci-KlXa0b1RGX8swSG-54" value="" style="shape=image;html=1;verticalAlign=top;verticalLabelPosition=bottom;labelBackgroundColor=#ffffff;imageAspect=0;aspect=fixed;image=https://upload.wikimedia.org/wikipedia/commons/thumb/c/c3/Python-logo-notext.svg/2048px-Python-logo-notext.svg.png;fillColor=#FFFF00;" parent="0Dci-KlXa0b1RGX8swSG-53" vertex="1">
          <mxGeometry x="200" y="130" width="60" height="60" as="geometry" />
        </mxCell>
        <mxCell id="k35hs6R8eBNfvN6zboLI-3" value="" style="group" vertex="1" connectable="0" parent="0Dci-KlXa0b1RGX8swSG-53">
          <mxGeometry x="101" y="190" width="58" height="80" as="geometry" />
        </mxCell>
        <mxCell id="k35hs6R8eBNfvN6zboLI-4" value="" style="shape=flexArrow;endArrow=classic;html=1;rounded=0;" edge="1" parent="k35hs6R8eBNfvN6zboLI-3">
          <mxGeometry width="50" height="50" relative="1" as="geometry">
            <mxPoint x="20" y="80" as="sourcePoint" />
            <mxPoint x="20" as="targetPoint" />
            <Array as="points">
              <mxPoint x="20" y="50" />
            </Array>
          </mxGeometry>
        </mxCell>
        <mxCell id="k35hs6R8eBNfvN6zboLI-5" value="" style="shape=flexArrow;endArrow=classic;html=1;rounded=0;" edge="1" parent="k35hs6R8eBNfvN6zboLI-3">
          <mxGeometry width="50" height="50" relative="1" as="geometry">
            <mxPoint x="40" as="sourcePoint" />
            <mxPoint x="40" y="80" as="targetPoint" />
          </mxGeometry>
        </mxCell>
        <mxCell id="k35hs6R8eBNfvN6zboLI-6" value="" style="shape=image;html=1;verticalAlign=top;verticalLabelPosition=bottom;labelBackgroundColor=#ffffff;imageAspect=0;aspect=fixed;image=https://cdn0.iconfinder.com/data/icons/google-material-design-3-0/48/ic_http_48px-128.png" vertex="1" parent="k35hs6R8eBNfvN6zboLI-3">
          <mxGeometry y="10" width="58" height="58" as="geometry" />
        </mxCell>
      </root>
    </mxGraphModel>
  </diagram>
</mxfile>
